# xmcd
#
# Track frame offsets:
#	150
#	17322
#	38547
#
# Disc length: 710 seconds
#
# Revision: 0
# Processed by: cddbd v1.5.1PL0 Copyright (c) Steve Scherf et al.
# Submitted via: audiograbber 1.83.01
#
DISCID=1002c403
DTITLE=Alison Krauss - Now That I've Found You - A Selection
DYEAR=1995
DGENRE=
TTITLE0=Baby, Now That I've Found You
TTITLE1=Oh, Atlanta
TTITLE2=Everytime You Say Goodbye
EXTD=
EXTT0=
EXTT1=
EXTT2=
PLAYORDER=
